<svg width="220" height="160" viewBox="0 0 220 160" fill="none" xmlns="http://www.w3.org/2000/svg">
  <rect x="10" y="14" width="200" height="132" rx="28" fill="url(#bg)"/>
  <circle cx="70" cy="110" r="18" fill="#F7B500" fill-opacity="0.25" stroke="#111111" stroke-width="6"/>
  <circle cx="150" cy="110" r="18" fill="#F7B500" fill-opacity="0.25" stroke="#111111" stroke-width="6"/>
  <path d="M70 110L103 80L122 110H150" stroke="#111111" stroke-width="6" stroke-linecap="round" stroke-linejoin="round"/>
  <path d="M103 80L86 60H117" stroke="#111111" stroke-width="6" stroke-linecap="round" stroke-linejoin="round"/>
  <path d="M126 66H148L160 86" stroke="#111111" stroke-width="6" stroke-linecap="round" stroke-linejoin="round"/>
  <path d="M40 88H104L92 60H54L40 88Z" fill="white"/>
  <path d="M54 60H92L84 42H63C57.4772 42 53 46.4772 53 52V60H54Z" fill="#111111"/>
  <path d="M54 60H92L104 88H40L54 60Z" stroke="#111111" stroke-width="6" stroke-linejoin="round"/>
  <path d="M97 44L117 28" stroke="#111111" stroke-width="6" stroke-linecap="round"/>
  <defs>
    <linearGradient id="bg" x1="24" y1="18" x2="192" y2="146" gradientUnits="userSpaceOnUse">
      <stop stop-color="#ECFDF3"/>
      <stop offset="1" stop-color="#FFFFFF"/>
    </linearGradient>
  </defs>
</svg>
