<svg width="220" height="160" viewBox="0 0 220 160" fill="none" xmlns="http://www.w3.org/2000/svg">
  <rect x="10" y="14" width="200" height="132" rx="28" fill="url(#bg)"/>
  <rect x="42" y="58" width="74" height="56" rx="14" fill="#F7B500"/>
  <path d="M58 60C58 49.5066 66.5066 41 77 41H81C91.4934 41 100 49.5066 100 60" stroke="#111111" stroke-width="6" stroke-linecap="round"/>
  <rect x="92" y="42" width="86" height="64" rx="18" fill="white"/>
  <path d="M116 44C116 31.8497 125.85 22 138 22H140C152.15 22 162 31.8497 162 44" stroke="#111111" stroke-width="6" stroke-linecap="round"/>
  <path d="M119 67H151" stroke="#111111" stroke-width="6" stroke-linecap="round"/>
  <path d="M119 81H167" stroke="#111111" stroke-width="6" stroke-linecap="round"/>
  <circle cx="165" cy="75" r="8" fill="#F7B500"/>
  <rect x="110" y="109" width="52" height="10" rx="5" fill="#111111" fill-opacity="0.08"/>
  <defs>
    <linearGradient id="bg" x1="32" y1="16" x2="180" y2="146" gradientUnits="userSpaceOnUse">
      <stop stop-color="#FFF7D6"/>
      <stop offset="1" stop-color="#FFFDF5"/>
    </linearGradient>
  </defs>
</svg>
