<svg width="100" height="100" viewBox="0 0 100 100"
    xmlns="http://www.w3.org/2000/svg">
    <circle cx="50" cy="50" r="45" fill="#FFCB05" fill-opacity="0.1"/>
    <circle cx="34" cy="30" r="16" fill="#FFFFFF" stroke="#1A1A1A" stroke-width="2"/>
    <circle cx="66" cy="30" r="16" fill="#FFFFFF" stroke="#1A1A1A" stroke-width="2"/>
    <rect x="20" y="36" width="60" height="42" rx="21" fill="#FFCB05" stroke="#1A1A1A" stroke-width="3"/>
    <rect x="36" y="36" width="6" height="42" fill="#1A1A1A"/>
    <rect x="48" y="36" width="6" height="42" fill="#1A1A1A"/>
    <rect x="60" y="36" width="6" height="42" fill="#1A1A1A"/>
    <circle cx="72" cy="48" r="4.5" fill="#1A1A1A"/>
    <path d="M72 58 C72 61 69 62 67 61" stroke="#1A1A1A" stroke-width="2.5" stroke-linecap="round" fill="none"/>
    <g transform="translate(10, 62)">
        <rect x="0" y="0" width="26" height="18" rx="3" fill="#1A1A1A"/>
        <path d="M8 0 V-4 C8 -5 9 -5.5 10 -5.5 H16 C17 -5.5 18 -5 18 -4 V0" stroke="#1A1A1A" stroke-width="2" fill="none"/>
        <rect x="12" y="5" width="2" height="8" fill="#FFCB05"/>
    </g>
</svg>
