<svg width="100" height="135" viewBox="0 0 100 135"
    xmlns="http://www.w3.org/2000/svg">
    <!-- 비리버 마스터피스 v20.1 ABSOLUTE AIRPORT (Simple & Fluid Recognition) -->

    <!-- Outer Teardrop Frame (Black Legacy Theme) -->
    <path d="M50 132 C50 132 10 90 10 50 C10 28 28 10 50 10 C72 10 90 28 90 50 C90 90 50 132 50 132 Z" fill="#1A1A1A" stroke="#FFFFFF" stroke-width="2"/>

    <!-- Inner White Circle -->
    <circle cx="50" cy="50" r="32" fill="#FFFFFF"/>

    <!-- Simple Airplane Icon (Modern Minimalist) -->
    <g transform="translate(50, 50) scale(0.65)">
        <path d="M-20 5 L-5 5 L-1 15 L3 15 L2 5 L15 5 L18 10 L22 10 L20 0 L22 -10 L18 -10 L15 -5 L2 -5 L3 -15 L-1 -15 L-5 -5 L-20 -5 Z" fill="#1A1A1A" transform="rotate(-45)"/>
    </g>

    <!-- Horizontal "beeliber" Text (Small & Premium) -->
    <text x="50" y="102" font-family="Arial, sans-serif" font-size="8.5" font-weight="950" fill="#FFFFFF" text-anchor="middle" letter-spacing="0.5">AIRPORT</text>
</svg>
