<svg width="100" height="135" viewBox="0 0 100 135"
    xmlns="http://www.w3.org/2000/svg">
    <!-- 비리버 마스터피스 v17.0 GOLD LEGACY STORE (Synchronized Theme) -->

    <!-- Outer Teardrop Frame (Now Vibrant Yellow) -->
    <path d="M50 132 C50 132 10 90 10 50 C10 28 28 10 50 10 C72 10 90 28 90 50 C90 90 50 132 50 132 Z" fill="#FFCB05" stroke="#FFFFFF" stroke-width="2"/>

    <!-- Inner White Circle -->
    <circle cx="50" cy="50" r="32" fill="#FFFFFF"/>

    <!-- Icon Cluster with Air Gap (Suitcase, Key, Locker) -->
    <g transform="translate(50, 48) scale(0.48)">
        <g transform="translate(-30, -10)">
            <rect x="0" y="0" width="60" height="42" rx="4" fill="none" stroke="#1A1A1A" stroke-width="4"/>
            <path d="M20 0 V-7 C20-10 24-12 30-12 C36-12 40-10 40-7 V0" fill="none" stroke="#1A1A1A" stroke-width="4"/>
            <path d="M12 0 V42 M48 0 V42 M30 15 V25" stroke="#1A1A1A" stroke-width="4"/>
        </g>
        <g transform="translate(-45, -45)">
            <circle cx="10" cy="10" r="8" fill="none" stroke="#1A1A1A" stroke-width="3"/>
            <rect x="18" y="8" width="12" height="4" fill="#1A1A1A"/>
        </g>
        <g transform="translate(15, -45)">
            <rect x="0" y="0" width="30" height="25" rx="2" fill="none" stroke="#1A1A1A" stroke-width="3"/>
            <path d="M6 8 H24 M6 13 H24 M6 18 H24" stroke="#1A1A1A" stroke-width="2"/>
        </g>
    </g>

    <!-- Horizontal "beeliber" Text (Now High-Contrast Black on Yellow) -->
    <text x="50" y="102" font-family="Arial, sans-serif" font-size="9" font-weight="950" fill="#1A1A1A" text-anchor="middle" letter-spacing="1">beeliber</text>
</svg>
