<svg width="60" height="75" viewBox="0 0 60 75"
    xmlns="http://www.w3.org/2000/svg">
    <!-- 비리버 마스터피스 v16.0 PRESTIGE USER POINTER (Synchronized with v16 Store) -->

    <!-- Outer Frame (Teardrop-Circle Hybrid) -->
    <path d="M30 72 C30 72 5 45 5 30 C5 16.2 16.2 5 30 5 C43.8 5 55 16.2 55 30 C55 45 30 72 30 72 Z" fill="#1A1A1A" stroke="#FFFFFF" stroke-width="2"/>

    <!-- Inner Content Circle -->
    <circle cx="30" cy="30" r="20" fill="#FFFFFF"/>

    <!-- High-End Golden Bee Icon -->
    <g transform="translate(18, 18) scale(0.6)">
        <circle cx="20" cy="20" r="15" fill="#FFCB05" stroke="#1A1A1A" stroke-width="3"/>
        <path d="M14 20 H26" stroke="#1A1A1A" stroke-width="4" stroke-linecap="round"/>
        <path d="M14 14 H26" stroke="#1A1A1A" stroke-width="4" stroke-linecap="round"/>
        <path d="M14 26 H26" stroke="#1A1A1A" stroke-width="4" stroke-linecap="round"/>
        <!-- Wings -->
        <path d="M20 10 Q28 0 35 15" fill="none" stroke="#1A1A1A" stroke-width="2"/>
        <path d="M20 10 Q12 0 5 15" fill="none" stroke="#1A1A1A" stroke-width="2"/>
    </g>

    <!-- Small Precision Dot -->
    <circle cx="30" cy="30" r="3" fill="#1A1A1A" opacity="0.1"/>
</svg>
